<svg xmlns="http://www.w3.org/2000/svg" width="512" height="512" viewBox="0 0 512 512" fill="none">
  <defs>
    <linearGradient id="g" x1="80" y1="80" x2="432" y2="432" gradientUnits="userSpaceOnUse">
      <stop stop-color="#FF00FF"/>
      <stop offset="0.55" stop-color="#00FFFF"/>
      <stop offset="1" stop-color="#FFD000"/>
    </linearGradient>
    <filter id="shadow" x="-20%" y="-20%" width="140%" height="140%">
      <feDropShadow dx="0" dy="12" stdDeviation="18" flood-color="#000" flood-opacity="0.35"/>
    </filter>
  </defs>

  <rect x="64" y="64" width="384" height="384" rx="96" fill="#0B0B12"/>
  <rect x="64" y="64" width="384" height="384" rx="96" stroke="url(#g)" stroke-width="18" filter="url(#shadow)"/>

  <path d="M170 176c0-20 16-36 36-36h100c52 0 96 42 96 96 0 54-44 96-96 96H206c-20 0-36-16-36-36V176Z" fill="url(#g)" opacity="0.22"/>

  <path d="M206 168h98c34 0 62 28 62 64s-28 64-62 64h-98V168Z" fill="#FFFFFF" opacity="0.95"/>
  <path d="M206 216h124" stroke="#0B0B12" stroke-width="14" stroke-linecap="round" opacity="0.9"/>
  <path d="M206 252h102" stroke="#0B0B12" stroke-width="14" stroke-linecap="round" opacity="0.65"/>
  <path d="M206 288h78" stroke="#0B0B12" stroke-width="14" stroke-linecap="round" opacity="0.45"/>

  <circle cx="176" cy="336" r="18" fill="url(#g)"/>
  <path d="M220 336h118" stroke="#FFFFFF" stroke-width="14" stroke-linecap="round" opacity="0.85"/>
</svg>
